<svg width="16" height="15" viewBox="0 0 16 15" fill="none" xmlns="http://www.w3.org/2000/svg">
<path d="M2 14.9999C1.2203 14.9999 0.579551 14.4051 0.506867 13.6444L0.5 13.4999V2.49994C0.5 1.72024 1.09489 1.07949 1.85554 1.00681L2 0.999939H6.5C7.2797 0.999939 7.92045 1.59483 7.99313 2.35548L8 2.49994V2.75437L10.1886 0.485117C10.7276 -0.0740709 11.5959 -0.124381 12.1956 0.347004L12.3118 0.448241L15.0694 3.17289C15.6219 3.71878 15.6614 4.58763 15.18 5.18407L15.0767 5.29955L12.766 7.49937L13 7.49994C13.7797 7.49994 14.4204 8.09483 14.4931 8.85548L14.5 8.99994V13.4999C14.5 14.2796 13.9051 14.9204 13.1445 14.9931L13 14.9999H2ZM7 8.49994H1.5V13.4999C1.5 13.7147 1.63542 13.8979 1.82553 13.9687L1.91012 13.9919L2 13.9999H7V8.49994ZM13 8.49994H8V13.9999H13C13.2455 13.9999 13.4496 13.8231 13.4919 13.5898L13.5 13.4999V8.99994C13.5 8.75448 13.3231 8.55033 13.0899 8.50799L13 8.49994ZM8 5.70937V7.49937H9.79L8 5.70937ZM6.5 1.99994H2C1.75454 1.99994 1.55039 2.17681 1.50806 2.41006L1.5 2.49994V7.49994H7V2.49994C7 2.28516 6.86458 2.10201 6.67447 2.03122L6.58988 2.008L6.5 1.99994ZM11.6222 1.17259C11.4396 0.99646 11.1692 0.981493 10.9768 1.11998L10.9086 1.17909L8.29255 3.89323C8.12705 4.06494 8.10856 4.32495 8.23563 4.51638L8.299 4.59377L10.9147 7.20949C11.0826 7.3774 11.3409 7.40129 11.5345 7.27924L11.6131 7.218L14.3708 4.59133C14.5433 4.41673 14.561 4.14719 14.4248 3.95313L14.3665 3.88423L11.6222 1.17259Z" fill="#212121"/>
</svg>
