<svg width="15" height="16" viewBox="0 0 15 16" fill="none" xmlns="http://www.w3.org/2000/svg">
<path d="M12.5027 1.62964L13.6419 2.80922C13.8338 3.00785 14.1503 3.01337 14.3489 2.82154C14.5476 2.62971 14.5531 2.31317 14.3612 2.11454L12.5403 0.22899C12.2454 -0.0763303 11.7562 -0.0763298 11.4613 0.22899L9.64034 2.11454C9.44851 2.31317 9.45403 2.62971 9.65266 2.82154C9.8513 3.01337 10.1678 3.00785 10.3597 2.80922L11.5027 1.62559V5.49999C11.5027 5.77613 11.7266 5.99999 12.0027 5.99999C12.2789 5.99999 12.5027 5.77613 12.5027 5.49999V1.62964ZM0.5 3C0.5 1.89543 1.39543 1 2.5 1H7C7.27614 1 7.5 1.22386 7.5 1.5C7.5 1.77614 7.27614 2 7 2H2.5C1.94772 2 1.5 2.44772 1.5 3V13C1.5 13.5523 1.94772 14 2.5 14H7C7.27614 14 7.5 14.2239 7.5 14.5C7.5 14.7761 7.27614 15 7 15H2.5C1.39543 15 0.5 14.1046 0.5 13V3ZM13.6419 13.1908L12.5027 14.3704V10.5C12.5027 10.2239 12.2789 10 12.0027 10C11.7266 10 11.5027 10.2239 11.5027 10.5V14.3744L10.3597 13.1908C10.1678 12.9921 9.8513 12.9866 9.65266 13.1785C9.45403 13.3703 9.44851 13.6868 9.64034 13.8855L11.4613 15.771C11.7562 16.0763 12.2454 16.0763 12.5403 15.771L14.3612 13.8855C14.5531 13.6868 14.5476 13.3703 14.3489 13.1785C14.1503 12.9866 13.8338 12.9921 13.6419 13.1908Z" fill="#212121"/>
</svg>
