<svg width="13" height="16" viewBox="0 0 13 16" fill="none" xmlns="http://www.w3.org/2000/svg">
<path d="M4.5 9C4.5 9.55228 4.05228 10 3.5 10C2.94772 10 2.5 9.55228 2.5 9C2.5 8.44772 2.94772 8 3.5 8C4.05228 8 4.5 8.44772 4.5 9ZM4.5 12C4.5 12.5523 4.05228 13 3.5 13C2.94772 13 2.5 12.5523 2.5 12C2.5 11.4477 2.94772 11 3.5 11C4.05228 11 4.5 11.4477 4.5 12ZM9.5 10C10.0523 10 10.5 9.55228 10.5 9C10.5 8.44772 10.0523 8 9.5 8C8.94772 8 8.5 8.44772 8.5 9C8.5 9.55228 8.94772 10 9.5 10ZM10.5 12C10.5 12.5523 10.0523 13 9.5 13C8.94772 13 8.5 12.5523 8.5 12C8.5 11.4477 8.94772 11 9.5 11C10.0523 11 10.5 11.4477 10.5 12ZM6.5 10C7.05228 10 7.5 9.55228 7.5 9C7.5 8.44772 7.05228 8 6.5 8C5.94772 8 5.5 8.44772 5.5 9C5.5 9.55228 5.94772 10 6.5 10ZM7.5 12C7.5 12.5523 7.05228 13 6.5 13C5.94772 13 5.5 12.5523 5.5 12C5.5 11.4477 5.94772 11 6.5 11C7.05228 11 7.5 11.4477 7.5 12ZM4 2C3.17157 2 2.5 2.67157 2.5 3.5V4.5C2.5 5.32843 3.17157 6 4 6H9C9.82843 6 10.5 5.32843 10.5 4.5V3.5C10.5 2.67157 9.82843 2 9 2H4ZM3.5 3.5C3.5 3.22386 3.72386 3 4 3H9C9.27614 3 9.5 3.22386 9.5 3.5V4.5C9.5 4.77614 9.27614 5 9 5H4C3.72386 5 3.5 4.77614 3.5 4.5V3.5ZM12.5 13.5C12.5 14.8807 11.3807 16 10 16H3C1.61929 16 0.5 14.8807 0.5 13.5V2.5C0.5 1.11929 1.61929 0 3 0H10C11.3807 0 12.5 1.11929 12.5 2.5V13.5ZM11.5 2.5C11.5 1.67157 10.8284 1 10 1H3C2.17157 1 1.5 1.67157 1.5 2.5V13.5C1.5 14.3284 2.17157 15 3 15H10C10.8284 15 11.5 14.3284 11.5 13.5V2.5Z" fill="#212121"/>
</svg>
