<svg width="17" height="12" viewBox="0 0 17 12" fill="none" xmlns="http://www.w3.org/2000/svg">
<path d="M4.5 9.5C4.5 9.22386 4.72386 9 5 9H6C6.27614 9 6.5 9.22386 6.5 9.5C6.5 9.77614 6.27614 10 6 10H5C4.72386 10 4.5 9.77614 4.5 9.5ZM11 9C10.7239 9 10.5 9.22386 10.5 9.5C10.5 9.77614 10.7239 10 11 10H12C12.2761 10 12.5 9.77614 12.5 9.5C12.5 9.22386 12.2761 9 12 9H11ZM2.5 0H14.5C15.6046 0 16.5 0.89543 16.5 2V10C16.5 11.1046 15.6046 12 14.5 12H2.5C1.39543 12 0.5 11.1046 0.5 10V2C0.5 0.89543 1.39543 0 2.5 0ZM8 1H2.5C1.94772 1 1.5 1.44772 1.5 2V10C1.5 10.5523 1.94772 11 2.5 11H8V1ZM9 11H14.5C15.0523 11 15.5 10.5523 15.5 10V2C15.5 1.44772 15.0523 1 14.5 1H9V11Z" fill="#212121"/>
</svg>
