<svg width="17" height="12" viewBox="0 0 17 12" fill="none" xmlns="http://www.w3.org/2000/svg">
<path d="M13.5 1C12.3954 1 11.5 1.89543 11.5 3C11.5 4.10457 12.3954 5 13.5 5C14.6046 5 15.5 4.10457 15.5 3C15.5 1.89543 14.6046 1 13.5 1ZM10.5407 2.50467C10.7768 1.08352 12.0119 0 13.5 0C15.1569 0 16.5 1.34315 16.5 3C16.5 4.65685 15.1569 6 13.5 6C12.0162 6 10.7839 4.92271 10.5428 3.5076C9.87629 3.57477 9.32682 4.08049 9.21466 4.7534L8.77173 7.411C8.57929 8.56565 7.61428 9.42494 6.4593 9.49533C6.22319 10.9165 4.98813 12 3.5 12C1.84315 12 0.5 10.6569 0.5 9C0.5 7.34315 1.84315 6 3.5 6C4.98384 6 6.21607 7.07728 6.45724 8.4924C7.12371 8.42523 7.67318 7.91951 7.78534 7.2466L8.22827 4.589C8.42071 3.43435 9.38571 2.57507 10.5407 2.50467ZM3.5 7C2.39543 7 1.5 7.89543 1.5 9C1.5 10.1046 2.39543 11 3.5 11C4.60457 11 5.5 10.1046 5.5 9C5.5 7.89543 4.60457 7 3.5 7Z" fill="#212121"/>
</svg>
