<svg width="16" height="16" viewBox="0 0 16 16" fill="none" xmlns="http://www.w3.org/2000/svg">
<path d="M5.16667 1C5.43713 1 5.70151 1.0731 5.93238 1.21016L6.06667 1.3L7.667 2.5L13.5 2.5C14.7703 2.5 15.8192 3.44737 15.9789 4.67409L15.9947 4.83562L16 5V12.5C16 13.8255 14.9685 14.91 13.6644 14.9947L13.5 15L2.5 15C1.17452 15 0.0899613 13.9685 0.00531769 12.6644L0 12.5L0 3.5C0 2.17452 1.03154 1.08996 2.33562 1.00532L2.5 1L5.16667 1ZM12.0047 3.5H11.0047V6L12.0047 6V3.5ZM10.0047 3.5L7.617 3.5L6.15763 5.03449C5.90991 5.2946 5.57838 5.45592 5.22435 5.49219L5.07143 5.5L1 5.499L1 12.5C1 13.2797 1.59489 13.9204 2.35554 13.9931L2.5 14L11.0044 14L11.0038 13.0623C11.0013 13.0419 11 13.0211 11 13C11 12.9791 11.0013 12.9585 11.0038 12.9383L11.0032 12H10.5047C10.2285 12 10.0047 11.7761 10.0047 11.5C10.0047 11.2239 10.2285 11 10.5047 11H11.0027L11.0015 9L11 9L10.5 9C10.2239 9 10 8.77614 10 8.5C10 8.22386 10.2239 8 10.5 8L11 8L11.0004 7L10.5047 7C10.372 7 10.2449 6.94732 10.1511 6.85355C10.0573 6.75979 10.0047 6.63261 10.0047 6.5V3.5ZM12.0035 12.5H12.5C12.7761 12.5 13 12.7239 13 13C13 13.2761 12.7761 13.5 12.5 13.5H12.0041L12.0044 14H13.5C14.2797 14 14.9204 13.4051 14.9931 12.6445L15 12.5L15 5C15 4.2203 14.4051 3.57955 13.6445 3.50687L13.5 3.5H13.0047V6.5C13.0047 6.77614 12.7808 7 12.5047 7H12.0004L12.0018 9.5H12.5047C12.7808 9.5 13.0047 9.72386 13.0047 10C13.0047 10.2761 12.7808 10.5 12.5047 10.5H12.0024L12.0029 11.4581C12.0041 11.4719 12.0047 11.4859 12.0047 11.5C12.0047 11.5139 12.0041 11.5277 12.003 11.5413L12.0035 12.5ZM5.16667 2L2.5 2C1.7203 2 1.07955 2.59489 1.00687 3.35554L1 3.5L1 4.499L5.07143 4.5C5.1809 4.5 5.28655 4.46411 5.37274 4.39902L5.4335 4.34483L6.694 3.021L5.46667 2.1C5.40176 2.05132 5.32632 2.01941 5.24701 2.0065L5.16667 2Z" fill="#212121"/>
</svg>
