<svg width="14" height="14" viewBox="0 0 14 14" fill="none" xmlns="http://www.w3.org/2000/svg">
<path d="M7.82985 0.225214C6.2405 -0.489994 4.42544 0.599681 4.30948 2.33868L4.1987 4H3C2.72386 4 2.5 4.22386 2.5 4.5C2.5 4.77614 2.72386 5 3 5H4.13201L3.69225 11.5948C3.62267 12.6382 2.53364 13.292 1.58003 12.8629L1.20482 12.6941C0.952997 12.5807 0.656994 12.693 0.543674 12.9448C0.430355 13.1967 0.542633 13.4927 0.794453 13.606L1.16966 13.7748C2.75901 14.49 4.57407 13.4004 4.69004 11.6614L5.13423 5H7C7.27614 5 7.5 4.77614 7.5 4.5C7.5 4.22386 7.27614 4 7 4H5.20092L5.30726 2.40522C5.37684 1.36182 6.46587 0.70801 7.41949 1.13714L7.7947 1.30598C8.04652 1.4193 8.34252 1.30702 8.45584 1.0552C8.56916 0.803382 8.45688 0.507378 8.20506 0.394059L7.82985 0.225214Z" fill="#212121"/>
<path d="M7.65922 7.0479C7.77578 6.93134 7.97127 6.95752 8.05306 7.10064L9.37643 9.41654L6.64652 12.1464C6.45126 12.3417 6.45126 12.6583 6.64652 12.8536C6.84178 13.0488 7.15837 13.0488 7.35363 12.8536L9.89069 10.3165L11.0787 12.3955C11.4876 13.1111 12.4651 13.242 13.0479 12.6592L13.3536 12.3536C13.5488 12.1583 13.5488 11.8417 13.3536 11.6465C13.1583 11.4512 12.8417 11.4512 12.6464 11.6465L12.3408 11.9521C12.2242 12.0687 12.0287 12.0425 11.9469 11.8994L10.6236 9.58356L13.3536 6.85355C13.5489 6.65829 13.5489 6.34171 13.3536 6.14645C13.1584 5.95118 12.8418 5.95118 12.6465 6.14645L10.1094 8.68361L8.9213 6.6045C8.51237 5.88888 7.53492 5.75798 6.95211 6.34079L6.64645 6.64646C6.45118 6.84172 6.45118 7.1583 6.64645 7.35356C6.84171 7.54883 7.15829 7.54883 7.35355 7.35356L7.65922 7.0479Z" fill="#212121"/>
</svg>
