<svg width="16" height="16" viewBox="0 0 16 16" fill="none" xmlns="http://www.w3.org/2000/svg">
<path d="M2 10.5031C2 10.5031 3.27909 8.10455 6.5 8.10455C9.72091 8.10455 14 11.1046 14 11.1046V7.60455C13.6667 6.93789 12.5 5.50455 10.5 5.10455C7.29928 4.46441 3.92822 6.30455 2 8.10455V10.5031Z" fill="#32B4FF"/>
<path d="M2 11.585V13.6254C2.00639 13.6054 2.01677 13.5742 2.03157 13.5334C2.06179 13.4501 2.11024 13.3272 2.18054 13.178C2.32161 12.8786 2.54783 12.4792 2.88646 12.0811C3.55485 11.2953 4.66989 10.5003 6.49999 10.5003C8.35982 10.5003 10.2923 11.382 11.7971 12.3073C12.5418 12.7653 13.1657 13.2239 13.603 13.5677C13.7611 13.692 13.8945 13.8011 14 13.8894V12.6103C13.5607 12.2747 12.9873 11.8653 12.3209 11.4555C10.7667 10.4998 8.64015 9.50031 6.49999 9.50031C4.33008 9.50031 2.95075 10.4621 2.12476 11.4332C2.08165 11.4838 2.04008 11.5345 2 11.585Z" fill="#32B4FF"/>
</svg>
