<svg width="16" height="16" viewBox="0 0 16 16" fill="none" xmlns="http://www.w3.org/2000/svg">
<g clip-path="url(#clip0_1529_86133)">
<path d="M-3.0598e-07 8C-2.35568e-07 9.61083 1.27919 10.9167 2.85714 10.9167C4.2392 10.9167 5.39207 9.91493 5.65702 8.58392L6.85707 8.58392L6.85707 11.072C6.85707 11.9526 7.55632 12.6664 8.41889 12.6664L10.3428 12.6664C10.6074 13.9978 11.7605 15 13.1429 15C14.7208 15 16 13.6942 16 12.0833C16 10.4725 14.7208 9.16667 13.1429 9.16667C11.7607 9.16667 10.6078 10.1686 10.3429 11.4997L8.41889 11.4997C8.18751 11.4997 7.99993 11.3082 7.99993 11.072L7.99993 4.9274C7.99993 4.6912 8.18751 4.49972 8.41889 4.49972L10.3428 4.49972C10.6074 5.83116 11.7605 6.83333 13.1429 6.83333C14.7208 6.83333 16 5.5275 16 3.91667C16 2.30584 14.7208 0.999999 13.1429 0.999999C11.7607 0.999999 10.6078 2.00188 10.3429 3.33305L8.41889 3.33305C7.55632 3.33305 6.85707 4.04686 6.85707 4.9274L6.85707 7.41725L5.65725 7.41725C5.39274 6.08565 4.23961 5.08333 2.85714 5.08333C1.27919 5.08333 -3.76391e-07 6.38917 -3.0598e-07 8ZM2.85714 9.75C1.91037 9.75 1.14286 8.9665 1.14286 8C1.14286 7.0335 1.91037 6.25 2.85714 6.25C3.80392 6.25 4.57143 7.0335 4.57143 8C4.57143 8.9665 3.80392 9.75 2.85714 9.75ZM13.1429 13.8333C12.1961 13.8333 11.4286 13.0498 11.4286 12.0833C11.4286 11.1168 12.1961 10.3333 13.1429 10.3333C14.0896 10.3333 14.8571 11.1168 14.8571 12.0833C14.8571 13.0498 14.0896 13.8333 13.1429 13.8333ZM11.4286 3.91667C11.4286 2.95017 12.1961 2.16667 13.1429 2.16667C14.0896 2.16667 14.8571 2.95017 14.8571 3.91667C14.8571 4.88316 14.0896 5.66667 13.1429 5.66667C12.1961 5.66667 11.4286 4.88316 11.4286 3.91667Z" fill="#212121"/>
</g>
<defs>
<clipPath id="clip0_1529_86133">
<rect width="16" height="16" fill="white"/>
</clipPath>
</defs>
</svg>
