<svg width="15" height="15" viewBox="0 0 15 15" fill="none" xmlns="http://www.w3.org/2000/svg">
<path d="M8.00452 1.11661C7.69239 0.933787 7.30585 0.933787 6.99372 1.11661L0.984834 4.63608C0.324555 5.02281 0.32557 5.97759 0.98667 6.36292L6.99556 9.86524C7.30676 10.0466 7.69148 10.0466 8.00268 9.86524L14.0116 6.36292C14.6727 5.97759 14.6737 5.02281 14.0134 4.63608L8.00452 1.11661ZM6.99372 2.27551C7.30585 2.09269 7.69239 2.09269 8.00452 2.27551L13.508 5.49896L8.00269 8.70778C7.69148 8.88917 7.30676 8.88917 6.99556 8.70778L1.49023 5.49896L6.99372 2.27551ZM0.570735 7.65002L7.00875 11.2725C7.31322 11.4438 7.68502 11.4438 7.98949 11.2725L14.4275 7.65004C14.6145 8.0883 14.4757 8.63948 14.0116 8.91L8.00268 12.4123C7.69148 12.5937 7.30676 12.5937 6.99556 12.4123L0.98667 8.91C0.52254 8.63948 0.383756 8.08828 0.570735 7.65002ZM0.570735 10.103L7.00875 13.7254C7.31322 13.8967 7.68502 13.8967 7.98949 13.7254L14.4275 10.103C14.6145 10.5412 14.4757 11.0924 14.0116 11.3629L8.00268 14.8653C7.69148 15.0467 7.30676 15.0467 6.99556 14.8653L0.98667 11.3629C0.52254 11.0924 0.383756 10.5412 0.570735 10.103Z" fill="#212121"/>
</svg>
