<svg width="15" height="16" viewBox="0 0 15 16" fill="none" xmlns="http://www.w3.org/2000/svg">
<path d="M10.5 7C10.5 8.65685 9.15685 10 7.5 10C5.84315 10 4.5 8.65685 4.5 7C4.5 5.34315 5.84315 4 7.5 4C9.15685 4 10.5 5.34315 10.5 7ZM9.5 7C9.5 5.89543 8.60457 5 7.5 5C6.39543 5 5.5 5.89543 5.5 7C5.5 8.10457 6.39543 9 7.5 9C8.60457 9 9.5 8.10457 9.5 7ZM12.4497 11.955C15.1834 9.2201 15.1834 4.78601 12.4497 2.05115C9.71608 -0.683716 5.28392 -0.683716 2.55025 2.05115C-0.183418 4.78601 -0.183418 9.2201 2.55025 11.955L4.07128 13.4538L6.11408 15.4389L6.24691 15.5567C7.02168 16.1847 8.15623 16.1455 8.88611 15.4391L11.3223 13.0691L12.4497 11.955ZM3.25499 2.75619C5.59944 0.410715 9.40055 0.410715 11.745 2.75619C14.0294 5.04153 14.0879 8.71039 11.9207 11.0667L11.745 11.2499L10.4237 12.5539L8.19315 14.7225L8.10016 14.8021C7.74594 15.0699 7.2543 15.0698 6.90012 14.802L6.80713 14.7224L3.8263 11.817L3.25499 11.2499L3.07927 11.0667C0.912077 8.71039 0.97065 5.04153 3.25499 2.75619Z" fill="#212121"/>
</svg>
