<svg width="16" height="12" viewBox="0 0 16 12" fill="none" xmlns="http://www.w3.org/2000/svg">
<path d="M13.9993 0.000297676C15.1042 -0.0189284 16 0.895728 16 2.0003V10.0003C16 11.1049 15.1042 12.0003 13.9993 12.0003H2.00073C0.895759 12.0003 0 11.1049 0 10.0003V2.0003C0 0.895728 0.895759 0.000297675 2.00073 0.000297675L13.9993 0.000297676ZM14.9996 2.0003C14.9996 1.44801 14.5518 1.0003 13.9993 1.0003H11.0055L11.0055 11.0003H13.9993C14.5518 11.0003 14.9996 10.5526 14.9996 10.0003V2.0003ZM10.0051 11.0003L10.0051 1.0003H2.00073C1.44825 1.0003 1.00037 1.44801 1.00037 2.0003V10.0003C1.00037 10.5526 1.44825 11.0003 2.00073 11.0003H10.0051Z" fill="#212121"/>
</svg>
