<svg width="17" height="16" viewBox="0 0 17 16" fill="none" xmlns="http://www.w3.org/2000/svg">
<path d="M13.3536 0.146447C13.1583 -0.0488155 12.8417 -0.0488155 12.6464 0.146447C12.4512 0.341709 12.4512 0.658291 12.6464 0.853553L14.7929 3H10C8.61929 3 7.5 4.11929 7.5 5.5V11.5C7.5 12.3284 6.82843 13 6 13H5.44999C5.21836 11.8589 4.20948 11 3 11C1.61929 11 0.5 12.1193 0.5 13.5C0.5 14.8807 1.61929 16 3 16C4.20948 16 5.21836 15.1411 5.44999 14H6C7.38071 14 8.5 12.8807 8.5 11.5V5.5C8.5 4.67157 9.17157 4 10 4H14.7929L12.6464 6.14645C12.4512 6.34171 12.4512 6.65829 12.6464 6.85355C12.8417 7.04882 13.1583 7.04882 13.3536 6.85355L16.3536 3.85355C16.5488 3.65829 16.5488 3.34171 16.3536 3.14645L13.3536 0.146447ZM4.5 13.5C4.5 14.3284 3.82843 15 3 15C2.17157 15 1.5 14.3284 1.5 13.5C1.5 12.6716 2.17157 12 3 12C3.82843 12 4.5 12.6716 4.5 13.5Z" fill="#212121"/>
</svg>
