<svg width="9" height="16" viewBox="0 0 9 16" fill="none" xmlns="http://www.w3.org/2000/svg">
<path d="M8.5 1.5C8.5 0.671573 7.82843 0 7 0H2C1.17157 0 0.5 0.671573 0.5 1.5V14.5C0.5 15.3284 1.17157 16 2 16H7C7.82843 16 8.5 15.3284 8.5 14.5L8.5 1.5ZM1.5 11.0039H4C4.27614 11.0039 4.5 10.78 4.5 10.5039C4.5 10.2277 4.27614 10.0039 4 10.0039H1.5L1.5 8.5H3C3.27614 8.5 3.5 8.27614 3.5 8C3.5 7.72386 3.27614 7.5 3 7.5H1.5L1.5 6H4C4.27614 6 4.5 5.77614 4.5 5.5C4.5 5.22386 4.27614 5 4 5H1.5L1.5 3.5H3C3.27614 3.5 3.5 3.27614 3.5 3C3.5 2.72386 3.27614 2.5 3 2.5H1.5L1.5 1.5C1.5 1.22386 1.72386 1 2 1L7 1C7.27614 1 7.5 1.22386 7.5 1.5L7.5 14.5C7.5 14.7761 7.27614 15 7 15H2C1.72386 15 1.5 14.7761 1.5 14.5L1.5 13.5H3C3.27614 13.5 3.5 13.2761 3.5 13C3.5 12.7239 3.27614 12.5 3 12.5H1.5L1.5 11.0039Z" fill="#212121"/>
</svg>
