<svg width="17" height="18" viewBox="0 0 17 18" fill="none" xmlns="http://www.w3.org/2000/svg">
<path d="M0.410992 6.38266C0.780282 5.24053 1.38863 4.19213 2.19133 3.30364C2.32707 3.15339 2.54002 3.09984 2.73069 3.16802L4.64897 3.85392C5.16905 4.03977 5.74131 3.76883 5.92716 3.24875C5.94544 3.19762 5.95952 3.14507 5.96925 3.09173L6.33471 1.08573C6.37104 0.886273 6.52422 0.728505 6.72251 0.686297C7.3027 0.562802 7.89758 0.5 8.50026 0.5C9.10256 0.5 9.69708 0.562725 10.2769 0.686072C10.4752 0.728241 10.6284 0.88591 10.6648 1.08529L11.0313 3.09165C11.1303 3.63497 11.6511 3.9951 12.1944 3.89601C12.2479 3.88627 12.3004 3.87219 12.3515 3.85395L14.2698 3.16802C14.4605 3.09984 14.6734 3.15339 14.8092 3.30364C15.6119 4.19213 16.2202 5.24053 16.5895 6.38266C16.6518 6.57534 16.5918 6.78658 16.4374 6.91764L14.8825 8.23773C14.4615 8.5952 14.4101 9.22627 14.7675 9.64726C14.8027 9.68865 14.8411 9.72712 14.8825 9.76225L16.4374 11.0824C16.5918 11.2134 16.6518 11.4247 16.5895 11.6173C16.2202 12.7595 15.6119 13.8079 14.8092 14.6964C14.6734 14.8466 14.4605 14.9002 14.2698 14.832L12.3515 14.1461C11.8315 13.9602 11.2592 14.2312 11.0733 14.7512C11.0551 14.8024 11.041 14.8549 11.0312 14.9085L10.6648 16.9147C10.6284 17.1141 10.4752 17.2718 10.2769 17.3139C9.69708 17.4373 9.10256 17.5 8.50026 17.5C7.89758 17.5 7.3027 17.4372 6.72251 17.3137C6.52422 17.2715 6.37104 17.1137 6.33471 16.9143L5.96926 14.9084C5.87018 14.365 5.3494 14.0049 4.80608 14.104C4.75265 14.1137 4.70011 14.1278 4.64906 14.1461L2.73069 14.832C2.54002 14.9002 2.32707 14.8466 2.19133 14.6964C1.38863 13.8079 0.780282 12.7595 0.410992 11.6173C0.348691 11.4247 0.408763 11.2134 0.563134 11.0824L2.11798 9.76227C2.53897 9.4048 2.59046 8.77373 2.23299 8.35274C2.19784 8.31135 2.15937 8.27288 2.118 8.23775L0.563134 6.91764C0.408763 6.78658 0.348691 6.57534 0.410992 6.38266ZM1.47154 6.37709L2.76523 7.47546C2.84803 7.54576 2.92496 7.62269 2.99526 7.70548C3.7102 8.54746 3.60721 9.8096 2.76521 10.5246L1.47154 11.6229C1.76359 12.4051 2.18504 13.1322 2.71648 13.7751L4.31246 13.2044C4.41473 13.1679 4.51982 13.1397 4.62667 13.1202C5.71332 12.922 6.75487 13.6423 6.95305 14.729L7.25702 16.3975C7.66489 16.4655 8.08024 16.5 8.50026 16.5C8.91999 16.5 9.33506 16.4656 9.74267 16.3976L10.0475 14.7289C10.067 14.6221 10.0951 14.517 10.1317 14.4147C10.5034 13.3746 11.6479 12.8327 12.6881 13.2044L14.284 13.7751C14.8155 13.1322 15.2369 12.4051 15.529 11.6229L14.2353 10.5245C14.1525 10.4542 14.0756 10.3773 14.0053 10.2945C13.2903 9.45254 13.3933 8.1904 14.2353 7.47544L15.529 6.37709C15.2369 5.59486 14.8155 4.86783 14.284 4.22494L12.6881 4.79559C12.5858 4.83214 12.4807 4.8603 12.3738 4.87979C11.2872 5.07796 10.2456 4.3577 10.0475 3.27119L9.74267 1.60235C9.33506 1.53443 8.91999 1.5 8.50026 1.5C8.08024 1.5 7.66489 1.53448 7.25702 1.60249L6.95304 3.27105C6.93355 3.37791 6.90539 3.48299 6.86884 3.58527C6.49714 4.62542 5.3526 5.1673 4.31237 4.79556L2.71648 4.22494C2.18504 4.86783 1.76359 5.59486 1.47154 6.37709ZM6.00026 9C6.00026 7.61929 7.11954 6.5 8.50026 6.5C9.88097 6.5 11.0003 7.61929 11.0003 9C11.0003 10.3807 9.88097 11.5 8.50026 11.5C7.11954 11.5 6.00026 10.3807 6.00026 9ZM7.00026 9C7.00026 9.82843 7.67183 10.5 8.50026 10.5C9.32868 10.5 10.0003 9.82843 10.0003 9C10.0003 8.17157 9.32868 7.5 8.50026 7.5C7.67183 7.5 7.00026 8.17157 7.00026 9Z" fill="#212121"/>
</svg>
