<svg width="32" height="32" viewBox="0 0 32 32" fill="none" xmlns="http://www.w3.org/2000/svg">
<path d="M10 15.8774C12.4677 15.849 13.8488 15.6875 14.7682 14.7682C15.6875 13.8488 15.849 12.4677 15.8774 10C12.6601 10.0639 10.0639 12.6601 10 15.8774Z" fill="#00395C" fill-opacity="0.8"/>
<path d="M16.2357 10.0034C16.2641 12.469 16.4259 13.8493 17.3448 14.7682C18.2497 15.673 19.602 15.8437 21.9976 15.8759C21.9337 12.6979 19.3989 10.1262 16.2357 10.0034Z" fill="#00395C" fill-opacity="0.8"/>
<path d="M21.9941 16.2371C19.6008 16.2694 18.2493 16.4404 17.3448 17.3448C16.4404 18.2493 16.2694 19.6008 16.2371 21.9941C19.3613 21.8721 21.8721 19.3613 21.9941 16.2371Z" fill="#00395C" fill-opacity="0.8"/>
<path d="M15.8759 21.9976C15.8437 19.602 15.673 18.2497 14.7682 17.3448C13.8493 16.4259 12.469 16.2641 10.0034 16.2357C10.1262 19.3989 12.6979 21.9337 15.8759 21.9976Z" fill="#00395C" fill-opacity="0.8"/>
</svg>
