<svg width="15" height="14" viewBox="0 0 15 14" fill="none" xmlns="http://www.w3.org/2000/svg">
<path d="M9 5.5C9 5.22386 8.77614 5 8.5 5H6.5V3C6.5 2.72386 6.27614 2.5 6 2.5C5.72386 2.5 5.5 2.72386 5.5 3V5H3.5C3.22386 5 3 5.22386 3 5.5C3 5.77614 3.22386 6 3.5 6H5.5V8C5.5 8.27614 5.72386 8.5 6 8.5C6.27614 8.5 6.5 8.27614 6.5 8V6H8.5C8.77614 6 9 5.77614 9 5.5ZM6 0C9.03757 0 11.5 2.46243 11.5 5.5C11.5 6.83879 11.0217 8.06586 10.2266 9.01962L14.3536 13.1464C14.5488 13.3417 14.5488 13.6583 14.3536 13.8536C14.18 14.0271 13.9106 14.0464 13.7157 13.9114L13.6464 13.8536L9.51962 9.72656C8.56586 10.5217 7.33879 11 6 11C2.96243 11 0.5 8.53757 0.5 5.5C0.5 2.46243 2.96243 0 6 0ZM6 1C3.51472 1 1.5 3.01472 1.5 5.5C1.5 7.98528 3.51472 10 6 10C8.48528 10 10.5 7.98528 10.5 5.5C10.5 3.01472 8.48528 1 6 1Z" fill="#212121"/>
</svg>
