<svg width="15" height="14" viewBox="0 0 15 14" fill="none" xmlns="http://www.w3.org/2000/svg">
<path d="M8.5 5C8.77614 5 9 5.22386 9 5.5C9 5.77614 8.77614 6 8.5 6H3.5C3.22386 6 3 5.77614 3 5.5C3 5.22386 3.22386 5 3.5 5H8.5ZM11.5 5.5C11.5 2.46243 9.03757 0 6 0C2.96243 0 0.5 2.46243 0.5 5.5C0.5 8.53757 2.96243 11 6 11C7.33879 11 8.56586 10.5217 9.51962 9.72656L13.6464 13.8536L13.7157 13.9114C13.9106 14.0464 14.18 14.0271 14.3536 13.8536C14.5488 13.6583 14.5488 13.3417 14.3536 13.1464L10.2266 9.01962C11.0217 8.06586 11.5 6.83879 11.5 5.5ZM1.5 5.5C1.5 3.01472 3.51472 1 6 1C8.48528 1 10.5 3.01472 10.5 5.5C10.5 7.98528 8.48528 10 6 10C3.51472 10 1.5 7.98528 1.5 5.5Z" fill="#212121"/>
</svg>
