<svg width="336" height="192" viewBox="0 0 336 192" fill="none" xmlns="http://www.w3.org/2000/svg">
<path d="M96.5 0L96.5 192M144.5 0L144.5 192M192.5 0L192.5 192M240.5 0V192M68 167.5H268M68 119.5H268M68 71.5H268M68 23.5H268" stroke="url(#paint0_radial_1166_5400)"/>
<rect x="148" y="76" width="40" height="40" rx="8" fill="#002033" fill-opacity="0.05"/>
<g clip-path="url(#clip0_1166_5400)">
<path d="M160 89.5C160 88.6716 160.672 88 161.5 88H162.5C163.328 88 164 88.6716 164 89.5V90.5C164 91.3284 163.328 92 162.5 92H161.5C160.672 92 160 91.3284 160 90.5V89.5ZM161.5 89C161.224 89 161 89.2239 161 89.5V90.5C161 90.7761 161.224 91 161.5 91H162.5C162.776 91 163 90.7761 163 90.5V89.5C163 89.2239 162.776 89 162.5 89H161.5ZM160 95.5C160 94.6716 160.672 94 161.5 94H162.5C163.328 94 164 94.6716 164 95.5V96.5C164 97.3284 163.328 98 162.5 98H161.5C160.672 98 160 97.3284 160 96.5V95.5ZM161.5 95C161.224 95 161 95.2239 161 95.5V96.5C161 96.7761 161.224 97 161.5 97H162.5C162.776 97 163 96.7761 163 96.5V95.5C163 95.2239 162.776 95 162.5 95H161.5ZM160 101.5C160 100.672 160.672 100 161.5 100H162.5C163.328 100 164 100.672 164 101.5V102.5C164 103.328 163.328 104 162.5 104H161.5C160.672 104 160 103.328 160 102.5V101.5ZM161.5 101C161.224 101 161 101.224 161 101.5V102.5C161 102.776 161.224 103 161.5 103H162.5C162.776 103 163 102.776 163 102.5V101.5C163 101.224 162.776 101 162.5 101H161.5ZM166 90.5C166 90.2239 166.224 90 166.5 90H175.5C175.776 90 176 90.2239 176 90.5C176 90.7761 175.776 91 175.5 91H166.5C166.224 91 166 90.7761 166 90.5ZM166 96.5C166 96.2239 166.224 96 166.5 96H175.5C175.776 96 176 96.2239 176 96.5C176 96.7761 175.776 97 175.5 97H166.5C166.224 97 166 96.7761 166 96.5ZM166 102.5C166 102.224 166.224 102 166.5 102H175.5C175.776 102 176 102.224 176 102.5C176 102.776 175.776 103 175.5 103H166.5C166.224 103 166 102.776 166 102.5Z" fill="#1C5682"/>
</g>
<g opacity="0.8">
<g opacity="0.65">
<rect x="216" y="47" width="24" height="24" rx="4" fill="#004269" fill-opacity="0.07"/>
<path d="M223 57L221 60L221.968 64.3333L225.167 66L229.333 64.75L231 61.8333L230.032 57.6667L226.806 56L223 57Z" fill="#FFA10A"/>
<path fill-rule="evenodd" clip-rule="evenodd" d="M222.069 60.1991L222.842 63.6614L225.268 64.9254L228.663 63.907L229.937 61.6776L229.163 58.343L226.689 57.0648L223.621 57.8707L222.069 60.1991ZM223 57L221 60L221.968 64.3333L225.167 66L229.333 64.75L231 61.8333L230.032 57.6667L226.806 56L223 57Z" fill="#002033"/>
<path d="M226 53L224 56.5L225 61L228.5 63L233.5 61.5L235 58.5L234 54L230.5 52L226 53Z" fill="#FFA10A"/>
<path fill-rule="evenodd" clip-rule="evenodd" d="M228.5 63L225.755 61.4315L225.724 61.4472L225.7 61.4L225 61L224 56.5L226 53L230.5 52L234 54L235 58.5L233.5 61.5L228.5 63ZM225.184 57.2171L225.86 60.2609L228.318 59.032L231.93 58H233.864L233.198 55H231.07L227.682 55.968L225.184 57.2171ZM225.46 55.9611L227.318 55.032L230.93 54H231.984L230.34 53.0601L226.649 53.8802L225.46 55.9611ZM228.682 59.968L226.83 60.894L228.624 61.9189L232.799 60.6663L233.632 59H232.07L228.682 59.968Z" fill="#002033"/>
</g>
<rect x="120" y="24" width="24" height="24" rx="4" fill="#004269" fill-opacity="0.07"/>
<path fill-rule="evenodd" clip-rule="evenodd" d="M133.923 29.8086L138.731 41.3471C138.837 41.602 138.716 41.8947 138.462 42.0009C138.207 42.1071 137.914 41.9866 137.808 41.7317L137.712 41.5009H129.212L129.115 41.7317C129.009 41.9866 128.716 42.1071 128.462 42.0009C128.207 41.8947 128.086 41.602 128.192 41.3471L133 29.8086H133.923ZM129.628 40.5009H137.295L136.462 38.5009H130.462L129.628 40.5009ZM130.878 37.5009H136.045L135.212 35.5009H131.712L130.878 37.5009ZM132.128 34.5009H134.795L133.462 31.3009L132.128 34.5009Z" fill="#97B2C4"/>
<path fill-rule="evenodd" clip-rule="evenodd" d="M133.462 29C134.014 29 134.462 29.4477 134.462 30V42C134.462 42.5523 134.014 43 133.462 43C132.91 43 132.462 42.5523 132.462 42V30C132.462 29.4477 132.91 29 133.462 29Z" fill="#32B4FF"/>
<path fill-rule="evenodd" clip-rule="evenodd" d="M129.5 36.4997C129.762 36.4124 129.904 36.1292 129.816 35.8672L127.595 29.2031C127.565 29.112 127.436 29.112 127.405 29.2031L125.184 35.8672C125.097 36.1292 125.238 36.4124 125.5 36.4997C125.762 36.587 126.045 36.4454 126.133 36.1834L126.361 35.4997H128.64L128.868 36.1834C128.955 36.4454 129.238 36.587 129.5 36.4997ZM128.307 34.4997L127.5 32.0808L126.694 34.4997H128.307Z" fill="#97B2C4"/>
<path fill-rule="evenodd" clip-rule="evenodd" d="M127.5 29C127.776 29 128 29.2239 128 29.5V36.5C128 36.7761 127.776 37 127.5 37C127.224 37 127 36.7761 127 36.5V29.5C127 29.2239 127.224 29 127.5 29Z" fill="#32B4FF"/>
<g opacity="0.25">
<rect y="95" width="24" height="24" rx="4" fill="#004269" fill-opacity="0.07"/>
<path fill-rule="evenodd" clip-rule="evenodd" d="M6.5 101C6.77614 101 7 101.207 7 101.462L7 112.538C7 112.793 6.77614 113 6.5 113C6.22386 113 6 112.793 6 112.538L6 101.462C6 101.207 6.22386 101 6.5 101Z" fill="#002033"/>
<path fill-rule="evenodd" clip-rule="evenodd" d="M8.5 101C8.77614 101 9 101.207 9 101.462L9 112.538C9 112.793 8.77614 113 8.5 113C8.22386 113 8 112.793 8 112.538L8 101.462C8 101.207 8.22386 101 8.5 101Z" fill="#002033"/>
<rect x="12" y="101" width="6" height="12" rx="1" fill="url(#paint1_linear_1166_5400)"/>
</g>
<g opacity="0.65">
<rect x="72" y="95" width="24" height="24" rx="4" fill="#004269" fill-opacity="0.07"/>
<rect x="80" y="101" width="2" height="12" rx="1" fill="#97B2C4"/>
<rect x="79" y="106" width="4" height="2" rx="1" fill="#002033"/>
<rect x="86" y="101" width="2" height="12" rx="1" fill="#97B2C4"/>
<rect x="85" y="103" width="4" height="2" rx="1" fill="#002033"/>
<rect x="85" y="109" width="4" height="2" rx="1" fill="#002033"/>
</g>
<g opacity="0.45">
<rect x="48" y="47" width="24" height="24" rx="4" fill="#004269" fill-opacity="0.07"/>
<path fill-rule="evenodd" clip-rule="evenodd" d="M55.5 53C55.7761 53 56 53.2066 56 53.4615L56 64.5385C56 64.7934 55.7761 65 55.5 65C55.2239 65 55 64.7934 55 64.5385L55 53.4615C55 53.2066 55.2239 53 55.5 53Z" fill="#32B4FF"/>
<path fill-rule="evenodd" clip-rule="evenodd" d="M59.5083 53.2084C59.6644 52.9953 59.9839 52.9359 60.2218 53.0757L65 55.8846L60.8782 58.3077L63.8223 60.0385L60.8782 61.7692L63.2335 63.1538L60.2218 64.9243C59.9839 65.0641 59.6644 65.0047 59.5083 64.7916C59.3522 64.5785 59.4185 64.2924 59.6564 64.1525L61.3553 63.1538L59 61.7692L61.9442 60.0385L59 58.3077L63.1218 55.8846L59.6564 53.8475C59.4185 53.7076 59.3522 53.4215 59.5083 53.2084Z" fill="#EB3333"/>
</g>
<g opacity="0.25">
<rect x="264" y="24" width="24" height="24" rx="4" fill="#004269" fill-opacity="0.07"/>
<g clip-path="url(#clip1_1166_5400)">
<path fill-rule="evenodd" clip-rule="evenodd" d="M271.5 34.5007C271.5 34.0007 271.5 33.5833 271.5 33.3132C271.5 33.3132 271.946 33.021 272.636 32.645C273.817 32.0005 275.465 31.334 277.25 31.334C278.836 31.334 279.862 31.8618 280.507 32.4916C280.5 32.5007 280.5 33.082 280.507 34.0007C280.433 33.6312 280.174 33.2946 279.906 33.0553C279.386 32.5911 278.772 32.334 277.25 32.334C275.701 32.334 274.224 32.9174 273.114 33.5229C272.489 33.864 272 34.1803 271.5 34.5007Z" fill="#F38B00"/>
<path d="M275 34C272.186 34 271.5 36.8333 271.5 36.8333V38.5C272.533 37.5039 273.5 36.5 275.5 36.5C277.583 36.5 279.806 37.8056 280.5 38.5V36.5C280.5 36.5 277.814 34 275 34Z" fill="#0BA5FF"/>
<path fill-rule="evenodd" clip-rule="evenodd" d="M271.509 39.3952C271.626 39.3542 271.758 39.3117 271.904 39.2699C272.682 39.0476 273.874 38.834 275.583 38.834C277.291 38.834 278.682 39.0475 279.65 39.2626C280.134 39.3701 280.239 39.3912 280.5 39.4733C280.5 39.7624 280.5 40.2387 280.5 40.5163C280.265 40.4422 279.886 40.3395 279.433 40.2387C278.526 40.0372 277.208 39.834 275.583 39.834C273.958 39.834 272.859 40.037 272.179 40.2314C271.877 40.3175 271.66 40.3991 271.509 40.4836C271.509 40.2077 271.509 39.6105 271.509 39.3952Z" fill="#EB5757"/>
</g>
<path fill-rule="evenodd" clip-rule="evenodd" d="M270 42H269V41H271V43H270V42Z" fill="black"/>
<path fill-rule="evenodd" clip-rule="evenodd" d="M282 30L283 30L283 31L281 31L281 29L282 29L282 30Z" fill="black"/>
<path fill-rule="evenodd" clip-rule="evenodd" d="M282 42L282 43L281 43L281 41L283 41L283 42L282 42Z" fill="black"/>
<path fill-rule="evenodd" clip-rule="evenodd" d="M270 30L270 29L271 29L271 31L269 31L269 30L270 30Z" fill="black"/>
<path fill-rule="evenodd" clip-rule="evenodd" d="M270 32.5V31.5H271V32.5H270ZM272.5 30H271.5V31H272.5V30ZM273.5 30V31H274.5V30H273.5ZM275.5 30V31H276.5V30H275.5ZM277.5 30V31H278.5V30H277.5ZM279.5 30V31H280.5V30H279.5ZM282 31.5H281V32.5H282V31.5ZM282 33.5H281V34.5H282V33.5ZM282 35.5H281V36.5H282V35.5ZM282 37.5H281V38.5H282V37.5ZM282 39.5H281V40.5H282V39.5ZM280.5 42V41H279.5V42H280.5ZM278.5 42V41H277.5V42H278.5ZM276.5 42V41H275.5V42H276.5ZM274.5 42V41H273.5V42H274.5ZM272.5 42V41H271.5V42H272.5ZM270 40.5H271V39.5H270V40.5ZM270 38.5H271V37.5H270V38.5ZM270 36.5H271V35.5H270V36.5ZM270 34.5H271V33.5H270V34.5Z" fill="black"/>
</g>
<g opacity="0.45">
<rect x="260" y="72" width="24" height="24" rx="4" fill="#004269" fill-opacity="0.07"/>
<path d="M270.5 84.1046C267.279 84.1046 266 86.5031 266 86.5031V84.1046C267.928 82.3046 271.299 80.4644 274.5 81.1046C276.5 81.5046 277.667 82.9379 278 83.6046V87.1046C278 87.1046 273.721 84.1046 270.5 84.1046Z" fill="#FFA10A"/>
<path d="M266 89.6251V87.5847C266.04 87.5342 266.082 87.4835 266.125 87.4328C266.951 86.4618 268.33 85.5 270.5 85.5C272.64 85.5 274.767 86.4995 276.321 87.4552C276.987 87.865 277.561 88.2744 278 88.61V89.889C277.894 89.8008 277.761 89.6917 277.603 89.5674C277.166 89.2235 276.542 88.765 275.797 88.307C274.292 87.3817 272.36 86.5 270.5 86.5C268.67 86.5 267.555 87.295 266.886 88.0808C266.548 88.4789 266.322 88.8783 266.181 89.1777C266.11 89.3269 266.062 89.4498 266.032 89.5331C266.017 89.5739 266.006 89.6051 266 89.6251Z" fill="#EB3333"/>
<path d="M266 82.3947V81.2018C266.706 80.7592 267.563 80.2835 268.507 79.8569C270.152 79.1129 272.101 78.5 274 78.5C275.661 78.5 276.986 79.0265 278 79.7426V81.0216C277.08 80.1911 275.759 79.5 274 79.5C272.299 79.5 270.498 80.0538 268.919 80.7681C267.761 81.2915 266.744 81.8914 266 82.3947Z" fill="#09B37B"/>
</g>
<g opacity="0.25">
<rect x="312" y="96" width="24" height="24" rx="4" fill="#004269" fill-opacity="0.07"/>
<path d="M330 110H326V107H330V110Z" fill="#F2C94C"/>
<path d="M322 110H318V107H322V110Z" fill="#F2C94C"/>
<path d="M322 113H319C318.448 113 318 112.552 318 112V110H322V113Z" fill="#FF4443"/>
<path d="M329 113H326V110H330V112C330 112.552 329.552 113 329 113Z" fill="#FF4443"/>
<path d="M330 107H326V104H329C329.552 104 330 104.448 330 105V107Z" fill="#24C38E"/>
<path d="M322 107H318V105C318 104.448 318.448 104 319 104H322V107Z" fill="#24C38E"/>
<path d="M323 103C323 102.448 323.448 102 324 102C324.552 102 325 102.448 325 103V113C325 113.552 324.552 114 324 114C323.448 114 323 113.552 323 113V103Z" fill="#97B2C4"/>
</g>
<rect x="216" y="120" width="24" height="24" rx="4" fill="#004269" fill-opacity="0.07"/>
<path d="M230.586 138H223C222.448 138 222 137.552 222 137V129.414C222 129.149 222.105 128.895 222.293 128.707L224.707 126.293C224.895 126.105 225.149 126 225.414 126H233C233.552 126 234 126.448 234 127V134.586C234 134.851 233.895 135.105 233.707 135.293L231.293 137.707C231.105 137.895 230.851 138 230.586 138Z" stroke="#97B2C4"/>
<path d="M228.458 129.5C225.25 129 223.722 130.833 222.5 131.5V134C223.722 133.167 226.717 131.6 228.917 132C231.117 132.4 232.889 131.5 233.5 131V126.5C232.583 127.5 230.273 129.783 228.458 129.5Z" fill="#FF4443"/>
<path d="M228.458 133.769C226.625 133.769 224.5 133 222.5 134V137C223.722 136.231 226.846 134.32 228.917 135.154C231.208 136.077 232.889 134.692 233.5 134.231V131C232.583 131.923 230.292 133.769 228.458 133.769Z" fill="#56B9F2"/>
</g>
<defs>
<radialGradient id="paint0_radial_1166_5400" cx="0" cy="0" r="1" gradientUnits="userSpaceOnUse" gradientTransform="translate(168.426 96) rotate(90) scale(96 120)">
<stop stop-color="#CCD9E0"/>
<stop offset="0.65" stop-color="#E5EBEF" stop-opacity="0.65"/>
<stop offset="0.76" stop-color="#EAF0F2" stop-opacity="0.45"/>
<stop offset="0.885" stop-color="#EDF2F4" stop-opacity="0.25"/>
<stop offset="1" stop-color="white" stop-opacity="0"/>
</radialGradient>
<linearGradient id="paint1_linear_1166_5400" x1="15" y1="101" x2="15" y2="113" gradientUnits="userSpaceOnUse">
<stop stop-color="#2BCC6C"/>
<stop offset="0.515625" stop-color="#FFF625"/>
<stop offset="1" stop-color="#FE5353"/>
</linearGradient>
<clipPath id="clip0_1166_5400">
<rect width="16" height="16" fill="white" transform="translate(160 88)"/>
</clipPath>
<clipPath id="clip1_1166_5400">
<rect width="10" height="10" fill="white" transform="translate(271 31)"/>
</clipPath>
</defs>
</svg>
